<?xml version="1.0" encoding="UTF-8" standalone="no"?>
<!-- Created with Inkscape (http://www.inkscape.org/) -->

<svg
   width="161.26567mm"
   height="64.604126mm"
   viewBox="0 0 161.26567 64.604126"
   version="1.1"
   id="svg1410"
   xmlns="http://www.w3.org/2000/svg"
   xmlns:svg="http://www.w3.org/2000/svg">
  <defs
     id="defs1407">
    <clipPath
       clipPathUnits="userSpaceOnUse"
       id="clipPath18">
      <path
         d="M 0,595.276 H 841.89 V 0 H 0 Z"
         id="path16" />
    </clipPath>
  </defs>
  <g
     id="layer1"
     transform="translate(-21.628054,-22.358011)">
    <g
       id="g12"
       transform="matrix(0.35277777,0,0,-0.35277777,-38.688602,162.091)">
      <g
         id="g14"
         clip-path="url(#clipPath18)">
        <g
           id="g20"
           transform="translate(239.738,307.6252)"
           style="fill:none">
          <path
             d="m 0,0 c -0.164,0.335 -0.387,0.654 -0.481,1.008 -0.422,1.595 -1.49,2.592 -2.906,3.318 -1.066,0.546 -2.167,1.062 -3.135,1.755 -2.119,1.514 -4.419,1.717 -6.865,1.209 -5.431,-1.126 -9.401,-4.39 -12.225,-8.95 -1.74,-2.812 -1.631,-6.175 -1.205,-9.367 0.83,-6.219 4.261,-10.074 10.346,-12.142 7.412,-2.519 13.586,-0.109 19.72,3.579 4.677,2.812 6.694,7.406 8.181,12.255 0.907,2.958 1.3,6.079 1.849,9.14 0.778,4.339 -0.178,8.415 -2.019,12.338 -0.374,0.796 -0.746,1.597 -1.05,2.421 -2.618,7.082 -7.435,11.997 -14.458,14.762 -0.592,0.233 -1.163,0.527 -1.717,0.841 -0.182,0.103 -0.279,0.358 -0.572,0.76 0.616,0.495 1.15,1.098 1.819,1.43 1.946,0.969 3.326,2.519 4.398,4.308 1.886,3.15 3.653,6.372 5.419,9.593 0.377,0.689 0.659,1.479 0.777,2.255 0.724,4.781 0.379,9.547 -0.555,14.253 -0.889,4.478 -5.542,6.821 -9.034,7.621 -2.002,0.459 -3.9,-0.871 -4.633,-3.314 -0.66,-2.201 -1.204,-4.523 -1.256,-6.804 -0.174,-7.752 -0.077,-15.51 -0.154,-23.265 -0.019,-1.888 -0.717,-6.953 -0.504,-7.594 0.528,-1.588 0.332,-2.023 -1.364,-2.18 -1.346,-0.124 -2.712,-0.112 -4.066,-0.06 -4.213,0.161 -8.246,-0.825 -12.293,-1.795 -1.682,-0.403 -3.341,-1.183 -5.439,-0.571 -0.051,0.683 -0.158,1.445 -0.157,2.206 0.005,4.632 0.03,9.263 0.056,13.895 0.029,5.038 0.149,10.078 0.072,15.114 -0.058,3.755 -0.31,7.51 -0.583,11.257 -0.219,2.999 -3.642,4.988 -6.396,6.61 -0.168,0.099 -1.263,0.855 -4.113,1.548 0.699,0.119 7.295,0.181 7.875,0.173 7.352,-0.097 14.704,-0.18 22.055,-0.356 4.87,-0.117 9.736,-0.397 14.606,-0.568 5.065,-0.178 9.98,-1.214 14.86,-2.486 2.776,-0.723 5.185,-2.13 7.271,-4.031 2.768,-2.523 5.584,-5.01 7.169,-8.572 0.681,-1.53 1.068,-2.946 0.582,-4.607 C 29.52,55.771 29.296,54.491 29.216,53.227 29.103,51.425 28.277,50.021 27.072,48.805 22.003,43.683 15.812,40.767 8.762,39.557 8.055,39.436 7.34,39.306 6.664,39.076 c -3.12,-1.062 -3.243,-2.78 -1.904,-5.4 0.256,-0.503 0.879,-0.989 1.429,-1.142 3.366,-0.941 6.799,-1.658 10.136,-2.686 6.997,-2.156 12.88,-5.897 16.877,-12.256 2.704,-4.301 4.511,-8.827 3.85,-14.01 -0.385,-3.011 -1.038,-5.889 -3.127,-8.368 -2.93,-3.476 -5.609,-7.166 -8.349,-10.8 -1.319,-1.75 -2.815,-3.193 -4.841,-4.156 -3.602,-1.713 -7.094,-3.655 -10.691,-5.379 -4.774,-2.289 -9.883,-3.034 -15.135,-2.986 -5.029,0.046 -10.058,0.105 -15.086,0.1 -2.378,-0.003 -4.595,0.465 -6.638,1.713 -1.362,0.831 -2.745,1.628 -4.124,2.431 -4.055,2.362 -7.079,5.799 -9.303,9.804 -3.087,5.556 -4.803,11.632 -3.748,17.991 0.577,3.474 0.913,7.153 2.952,10.295 1.393,2.147 3.114,3.8 5.518,4.769 6.685,2.698 13.551,3.845 20.641,2.102 4.229,-1.04 8.178,-2.844 11.333,-5.974 C 0.296,11.312 1.546,6.592 0.974,1.314 0.927,0.874 0.665,0.457 0.503,0.03 0.335,0.02 0.168,0.01 0,0"
             style="fill:none;fill-opacity:1;fill-rule:nonzero;stroke:none"
             id="path22" />
        </g>
        <g
           id="g24"
           transform="translate(239.738,307.6252)"
           style="fill:none">
          <path
             d="m 0,0 c -0.164,0.335 -0.387,0.654 -0.481,1.008 -0.422,1.595 -1.49,2.592 -2.906,3.318 -1.066,0.546 -2.167,1.062 -3.135,1.755 -2.119,1.514 -4.419,1.717 -6.865,1.209 -5.431,-1.126 -9.401,-4.39 -12.225,-8.95 -1.74,-2.812 -1.631,-6.175 -1.205,-9.367 0.83,-6.219 4.261,-10.074 10.346,-12.142 7.412,-2.519 13.586,-0.109 19.72,3.579 4.677,2.812 6.694,7.406 8.181,12.255 0.907,2.958 1.3,6.079 1.849,9.14 0.778,4.339 -0.178,8.415 -2.019,12.338 -0.374,0.796 -0.746,1.597 -1.05,2.421 -2.618,7.082 -7.435,11.997 -14.458,14.762 -0.592,0.233 -1.163,0.527 -1.717,0.841 -0.182,0.103 -0.279,0.358 -0.572,0.76 0.616,0.495 1.15,1.098 1.819,1.43 1.946,0.969 3.326,2.519 4.398,4.308 1.886,3.15 3.653,6.372 5.419,9.593 0.377,0.689 0.659,1.479 0.777,2.255 0.724,4.781 0.379,9.547 -0.555,14.253 -0.889,4.478 -5.542,6.821 -9.034,7.621 -2.002,0.459 -3.9,-0.871 -4.633,-3.314 -0.66,-2.201 -1.204,-4.523 -1.256,-6.804 -0.174,-7.752 -0.077,-15.51 -0.154,-23.265 -0.019,-1.888 -0.717,-6.953 -0.504,-7.594 0.528,-1.588 0.332,-2.023 -1.364,-2.18 -1.346,-0.124 -2.712,-0.112 -4.066,-0.06 -4.213,0.161 -8.246,-0.825 -12.293,-1.795 -1.682,-0.403 -3.341,-1.183 -5.439,-0.571 -0.051,0.683 -0.158,1.445 -0.157,2.206 0.005,4.632 0.03,9.263 0.056,13.895 0.029,5.038 0.149,10.078 0.072,15.114 -0.058,3.755 -0.31,7.51 -0.583,11.257 -0.219,2.999 -3.642,4.988 -6.396,6.61 -0.168,0.099 -1.263,0.855 -4.113,1.548 0.699,0.119 7.295,0.181 7.875,0.173 7.352,-0.097 14.704,-0.18 22.055,-0.356 4.87,-0.117 9.736,-0.397 14.606,-0.568 5.065,-0.178 9.98,-1.214 14.86,-2.486 2.776,-0.723 5.185,-2.13 7.271,-4.031 2.768,-2.523 5.584,-5.01 7.169,-8.572 0.681,-1.53 1.068,-2.946 0.582,-4.607 C 29.52,55.771 29.296,54.491 29.216,53.227 29.103,51.425 28.277,50.021 27.072,48.805 22.003,43.683 15.812,40.767 8.762,39.557 8.055,39.436 7.34,39.306 6.664,39.076 c -3.12,-1.062 -3.243,-2.78 -1.904,-5.4 0.256,-0.503 0.879,-0.989 1.429,-1.142 3.366,-0.941 6.799,-1.658 10.136,-2.686 6.997,-2.156 12.88,-5.897 16.877,-12.256 2.704,-4.301 4.511,-8.827 3.85,-14.01 -0.385,-3.011 -1.038,-5.889 -3.127,-8.368 -2.93,-3.476 -5.609,-7.166 -8.349,-10.8 -1.319,-1.75 -2.815,-3.193 -4.841,-4.156 -3.602,-1.713 -7.094,-3.655 -10.691,-5.379 -4.774,-2.289 -9.883,-3.034 -15.135,-2.986 -5.029,0.046 -10.058,0.105 -15.086,0.1 -2.378,-0.003 -4.595,0.465 -6.638,1.713 -1.362,0.831 -2.745,1.628 -4.124,2.431 -4.055,2.362 -7.079,5.799 -9.303,9.804 -3.087,5.556 -4.803,11.632 -3.748,17.991 0.577,3.474 0.913,7.153 2.952,10.295 1.393,2.147 3.114,3.8 5.518,4.769 6.685,2.698 13.551,3.845 20.641,2.102 4.229,-1.04 8.178,-2.844 11.333,-5.974 C 0.296,11.312 1.546,6.592 0.974,1.314 0.927,0.874 0.665,0.457 0.503,0.03 0.335,0.02 0.168,0.01 0,0 Z"
             style="fill:none;stroke:#ec1d26;stroke-width:3;stroke-linecap:butt;stroke-linejoin:round;stroke-miterlimit:10;stroke-dasharray:none;stroke-opacity:1"
             id="path26" />
        </g>
        <g
           id="g28"
           transform="translate(196.267,385.2323)"
           style="fill:none">
          <path
             d="m 0,0 c -2.136,-2.358 -4.532,-4.618 -3.72,-7.035 1.065,-3.171 2.394,-6.261 2.749,-9.659 0.293,-2.798 -0.243,-5.44 -1.152,-8.004 -0.667,-1.881 -2.061,-3.376 -4.087,-3.72 -2.975,-0.507 -5.995,-0.875 -9.007,-0.989 -1.985,-0.074 -3.639,0.922 -4.789,2.709 -4.79,7.445 -5.16,14.752 -0.731,22.116 0.935,1.554 2.23,2.931 3.528,4.22 2.039,2.024 4.755,2.283 7.386,2.041 C -7.709,1.485 -2.518,0.632 0,0"
             style="fill:none;fill-opacity:1;fill-rule:nonzero;stroke:none"
             id="path30" />
        </g>
        <g
           id="g32"
           transform="translate(196.267,385.2323)"
           style="fill:none">
          <path
             d="m 0,0 c -2.136,-2.358 -4.532,-4.618 -3.72,-7.035 1.065,-3.171 2.394,-6.261 2.749,-9.659 0.293,-2.798 -0.243,-5.44 -1.152,-8.004 -0.667,-1.881 -2.061,-3.376 -4.087,-3.72 -2.975,-0.507 -5.995,-0.875 -9.007,-0.989 -1.985,-0.074 -3.639,0.922 -4.789,2.709 -4.79,7.445 -5.16,14.752 -0.731,22.116 0.935,1.554 2.23,2.931 3.528,4.22 2.039,2.024 4.755,2.283 7.386,2.041 C -7.709,1.485 -2.518,0.632 0,0 Z"
             style="fill:none;stroke:#ec1d26;stroke-width:3;stroke-linecap:butt;stroke-linejoin:round;stroke-miterlimit:10;stroke-dasharray:none;stroke-opacity:1"
             id="path34" />
        </g>
        <g
           id="g36"
           transform="translate(328.0852,382.9296)"
           style="fill:none">
          <path
             d="m 0,0 c 4.913,1.772 9.627,3.254 14.159,5.168 4.441,1.875 8.697,4.188 13.416,6.496 0.169,-1.24 0.39,-2.065 0.376,-2.885 -0.113,-6.549 -0.307,-13.095 -0.4,-19.644 -0.047,-3.272 0.071,-6.547 0.102,-9.821 0.055,-5.91 0.08,-11.821 0.156,-17.732 0.08,-6.222 0.311,-12.445 0.287,-18.667 -0.036,-9.426 -0.239,-18.851 -0.358,-28.277 -0.016,-1.242 -0.361,-2.597 1.007,-3.549 0.734,0.092 1.513,0.229 2.298,0.276 0.698,0.042 1.292,-0.182 1.336,-1.019 0.041,-0.784 -0.425,-1.209 -1.148,-1.26 -2.547,-0.178 -5.101,-0.472 -7.646,-0.421 -2.868,0.057 -5.727,0.484 -8.595,0.661 -1.264,0.078 -2.547,-0.007 -3.813,-0.116 -4.527,-0.39 -9.042,-0.289 -14.174,0.16 0.844,0.663 1.226,1.12 1.714,1.321 2.626,1.08 3.63,3.243 3.916,5.838 0.656,5.964 0.803,11.933 0.666,17.944 -0.175,7.662 0.17,15.335 0.285,23.003 0.036,2.396 0.074,4.793 0.073,7.19 -10e-4,5.111 -0.052,10.223 -0.034,15.334 0.009,2.393 -0.002,4.799 0.229,7.176 C 4.247,-8.774 3.721,-5.02 1.085,-1.752 0.742,-1.327 0.502,-0.82 0,0"
             style="fill:none;fill-opacity:1;fill-rule:nonzero;stroke:none"
             id="path38" />
        </g>
        <g
           id="g40"
           transform="translate(328.0852,382.9296)"
           style="fill:none">
          <path
             d="m 0,0 c 4.913,1.772 9.627,3.254 14.159,5.168 4.441,1.875 8.697,4.188 13.416,6.496 0.169,-1.24 0.39,-2.065 0.376,-2.885 -0.113,-6.549 -0.307,-13.095 -0.4,-19.644 -0.047,-3.272 0.071,-6.547 0.102,-9.821 0.055,-5.91 0.08,-11.821 0.156,-17.732 0.08,-6.222 0.311,-12.445 0.287,-18.667 -0.036,-9.426 -0.239,-18.851 -0.358,-28.277 -0.016,-1.242 -0.361,-2.597 1.007,-3.549 0.734,0.092 1.513,0.229 2.298,0.276 0.698,0.042 1.292,-0.182 1.336,-1.019 0.041,-0.784 -0.425,-1.209 -1.148,-1.26 -2.547,-0.178 -5.101,-0.472 -7.646,-0.421 -2.868,0.057 -5.727,0.484 -8.595,0.661 -1.264,0.078 -2.547,-0.007 -3.813,-0.116 -4.527,-0.39 -9.042,-0.289 -14.174,0.16 0.844,0.663 1.226,1.12 1.714,1.321 2.626,1.08 3.63,3.243 3.916,5.838 0.656,5.964 0.803,11.933 0.666,17.944 -0.175,7.662 0.17,15.335 0.285,23.003 0.036,2.396 0.074,4.793 0.073,7.19 -10e-4,5.111 -0.052,10.223 -0.034,15.334 0.009,2.393 -0.002,4.799 0.229,7.176 C 4.247,-8.774 3.721,-5.02 1.085,-1.752 0.742,-1.327 0.502,-0.82 0,0 Z"
             style="fill:none;stroke:#ec1d26;stroke-width:3;stroke-linecap:butt;stroke-linejoin:round;stroke-miterlimit:10;stroke-dasharray:none;stroke-opacity:1"
             id="path42" />
        </g>
        <g
           id="g44"
           transform="translate(359.1703,332.3291)"
           style="fill:none">
          <path
             d="m 0,0 c 2.363,0.798 4.624,1.545 6.872,2.327 1.054,0.367 2.259,0.579 3.094,1.242 3.965,3.148 7.663,6.573 8.999,11.735 0.973,3.764 0.223,5.652 -3.152,7.973 2.432,0.404 4.569,1.026 6.869,0.745 1.974,-0.242 3.968,-0.313 5.954,-0.455 0.318,-0.023 0.703,0.087 0.941,-0.057 0.36,-0.218 0.842,-0.597 0.855,-0.924 C 30.444,22.274 29.971,21.744 29.626,21.66 29.027,21.514 28.36,21.607 27.727,21.657 26.57,21.748 25.884,21.279 25.754,20.099 25.259,15.615 22.684,12.077 20.218,8.581 19.222,7.169 17.439,6.201 15.843,5.351 13.737,4.229 11.476,3.389 9.256,2.494 7.947,1.966 7.384,1.115 7.691,-0.45 8.203,-0.525 8.735,-0.717 9.24,-0.66 c 5.215,0.586 9.026,-1.841 12.335,-5.542 2.634,-2.945 3.849,-6.563 5.222,-10.141 0.797,-2.078 1.825,-4.067 2.745,-6.099 1.05,-2.323 2.126,-4.634 3.135,-6.975 1.382,-3.209 3.312,-5.998 6.012,-8.244 0.787,-0.655 1.5,-1.4 2.516,-2.358 -0.915,-0.264 -1.473,-0.511 -2.052,-0.573 -1.029,-0.112 -2.074,-0.181 -3.108,-0.146 -3.9,0.134 -7.798,0.367 -11.699,0.471 -6.003,0.159 -10.193,3.026 -12.399,8.532 -1.271,3.173 -2.275,6.484 -3.066,9.812 -0.979,4.115 -1.682,8.3 -2.374,12.476 C 5.87,-5.598 4.396,-2.42 0.538,-0.847 0.401,-0.79 0.291,-0.653 0.185,-0.537 0.137,-0.484 0.131,-0.392 0,0"
             style="fill:none;fill-opacity:1;fill-rule:nonzero;stroke:none"
             id="path46" />
        </g>
        <g
           id="g48"
           transform="translate(359.1703,332.3291)"
           style="fill:none">
          <path
             d="m 0,0 c 2.363,0.798 4.624,1.545 6.872,2.327 1.054,0.367 2.259,0.579 3.094,1.242 3.965,3.148 7.663,6.573 8.999,11.735 0.973,3.764 0.223,5.652 -3.152,7.973 2.432,0.404 4.569,1.026 6.869,0.745 1.974,-0.242 3.968,-0.313 5.954,-0.455 0.318,-0.023 0.703,0.087 0.941,-0.057 0.36,-0.218 0.842,-0.597 0.855,-0.924 C 30.444,22.274 29.971,21.744 29.626,21.66 29.027,21.514 28.36,21.607 27.727,21.657 26.57,21.748 25.884,21.279 25.754,20.099 25.259,15.615 22.684,12.077 20.218,8.581 19.222,7.169 17.439,6.201 15.843,5.351 13.737,4.229 11.476,3.389 9.256,2.494 7.947,1.966 7.384,1.115 7.691,-0.45 8.203,-0.525 8.735,-0.717 9.24,-0.66 c 5.215,0.586 9.026,-1.841 12.335,-5.542 2.634,-2.945 3.849,-6.563 5.222,-10.141 0.797,-2.078 1.825,-4.067 2.745,-6.099 1.05,-2.323 2.126,-4.634 3.135,-6.975 1.382,-3.209 3.312,-5.998 6.012,-8.244 0.787,-0.655 1.5,-1.4 2.516,-2.358 -0.915,-0.264 -1.473,-0.511 -2.052,-0.573 -1.029,-0.112 -2.074,-0.181 -3.108,-0.146 -3.9,0.134 -7.798,0.367 -11.699,0.471 -6.003,0.159 -10.193,3.026 -12.399,8.532 -1.271,3.173 -2.275,6.484 -3.066,9.812 -0.979,4.115 -1.682,8.3 -2.374,12.476 C 5.87,-5.598 4.396,-2.42 0.538,-0.847 0.401,-0.79 0.291,-0.653 0.185,-0.537 0.137,-0.484 0.131,-0.392 0,0 Z"
             style="fill:none;stroke:#ec1d26;stroke-width:3;stroke-linecap:butt;stroke-linejoin:round;stroke-miterlimit:10;stroke-dasharray:none;stroke-opacity:1"
             id="path50" />
        </g>
        <g
           id="g52"
           transform="translate(284.4242,347.4504)"
           style="fill:none">
          <path
             d="m 0,0 c 2.225,0.942 4.28,2.087 6.483,2.693 6.44,1.772 12.479,4.428 18.284,7.679 0.398,0.223 0.876,0.302 1.395,0.475 0.795,-1.432 0.38,-2.882 0.352,-4.263 -0.088,-4.39 -0.273,-8.777 -0.409,-13.166 -0.371,-11.98 0.607,-23.947 0.156,-35.941 -0.48,-12.773 -0.439,-25.567 -0.544,-38.352 -0.05,-5.997 0.18,-11.996 0.111,-17.993 -0.042,-3.666 -0.186,-7.362 -0.708,-10.984 -0.4,-2.777 -0.763,-5.79 -3.511,-7.576 -3.792,-5.084 -9.167,-8.163 -14.728,-10.619 -6.868,-3.033 -14.25,-3.444 -21.646,-1.956 -2.172,0.437 -4.492,0.803 -6.381,1.854 -5.156,2.869 -8.226,7.452 -9.549,13.188 -0.251,1.088 -0.388,2.207 -0.518,3.318 -0.718,6.109 3.724,12.312 9.761,13.717 2.287,0.532 4.582,0.615 6.901,0.366 0.159,-0.017 0.319,-0.036 0.476,-0.063 1.935,-0.337 6.966,-3.673 8.037,-5.327 1.377,-2.125 1.179,-4.374 -0.718,-6.025 -0.885,-0.771 -1.983,-1.331 -3.052,-1.85 -2.656,-1.288 -4.82,-3.057 -6.218,-5.718 -1.727,-3.29 -1.604,-5.834 0.981,-8.543 2.248,-2.357 4.95,-4.349 8.474,-3.303 3.907,1.159 7.01,3.224 7.852,7.772 0.864,4.659 1.26,9.332 1.566,14.047 0.669,10.316 -0.254,20.617 -0.092,30.925 0.026,1.678 0.183,3.355 0.173,5.033 -0.043,7.35 -0.176,14.7 -0.18,22.05 -0.003,7.031 -0.105,14.074 0.249,21.09 0.266,5.282 0.442,10.53 -0.015,15.801 C 2.662,-7.98 2.136,-4.363 0.238,-1.088 0.127,-0.897 0.134,-0.637 0,0"
             style="fill:none;fill-opacity:1;fill-rule:nonzero;stroke:none"
             id="path54" />
        </g>
        <g
           id="g56"
           transform="translate(284.4242,347.4504)"
           style="fill:none">
          <path
             d="m 0,0 c 2.225,0.942 4.28,2.087 6.483,2.693 6.44,1.772 12.479,4.428 18.284,7.679 0.398,0.223 0.876,0.302 1.395,0.475 0.795,-1.432 0.38,-2.882 0.352,-4.263 -0.088,-4.39 -0.273,-8.777 -0.409,-13.166 -0.371,-11.98 0.607,-23.947 0.156,-35.941 -0.48,-12.773 -0.439,-25.567 -0.544,-38.352 -0.05,-5.997 0.18,-11.996 0.111,-17.993 -0.042,-3.666 -0.186,-7.362 -0.708,-10.984 -0.4,-2.777 -0.763,-5.79 -3.511,-7.576 -3.792,-5.084 -9.167,-8.163 -14.728,-10.619 -6.868,-3.033 -14.25,-3.444 -21.646,-1.956 -2.172,0.437 -4.492,0.803 -6.381,1.854 -5.156,2.869 -8.226,7.452 -9.549,13.188 -0.251,1.088 -0.388,2.207 -0.518,3.318 -0.718,6.109 3.724,12.312 9.761,13.717 2.287,0.532 4.582,0.615 6.901,0.366 0.159,-0.017 0.319,-0.036 0.476,-0.063 1.935,-0.337 6.966,-3.673 8.037,-5.327 1.377,-2.125 1.179,-4.374 -0.718,-6.025 -0.885,-0.771 -1.983,-1.331 -3.052,-1.85 -2.656,-1.288 -4.82,-3.057 -6.218,-5.718 -1.727,-3.29 -1.604,-5.834 0.981,-8.543 2.248,-2.357 4.95,-4.349 8.474,-3.303 3.907,1.159 7.01,3.224 7.852,7.772 0.864,4.659 1.26,9.332 1.566,14.047 0.669,10.316 -0.254,20.617 -0.092,30.925 0.026,1.678 0.183,3.355 0.173,5.033 -0.043,7.35 -0.176,14.7 -0.18,22.05 -0.003,7.031 -0.105,14.074 0.249,21.09 0.266,5.282 0.442,10.53 -0.015,15.801 C 2.662,-7.98 2.136,-4.363 0.238,-1.088 0.127,-0.897 0.134,-0.637 0,0 Z"
             style="fill:none;stroke:#ec1d26;stroke-width:3;stroke-linecap:butt;stroke-linejoin:round;stroke-miterlimit:10;stroke-dasharray:none;stroke-opacity:1"
             id="path58" />
        </g>
        <g
           id="g60"
           transform="translate(571.0403,217.9305)"
           style="fill:none">
          <path
             d="M 0,0 C 0.047,0.075 0.094,0.15 0.14,0.225 -0.251,0.461 -0.643,0.697 -1.034,0.933 -1.014,0.554 -0.856,0.381 -0.662,0.268 -0.459,0.149 -0.222,0.087 0,0 m 6.674,-3.282 c -3.301,0.333 -4.721,1.767 -7.708,3.107 -2.31,1.108 -3.146,2.971 -3.223,3.019 -1.015,3.33 -4.671,8.706 -2.209,12.231 1.332,1.908 3.498,2.49 5.495,3.215 3.878,1.407 7.399,0.434 10.554,-2.068 1.073,-0.851 1.361,-2.256 0.835,-3.696 C 9.787,10.801 9.103,9.095 8.495,7.361 7.426,4.316 8.459,1.994 11.492,0.816 13.2,0.154 14.964,-0.379 16.733,-0.862 22.016,-2.307 26.685,-0.934 30.8,2.48 c 0.96,0.797 1.765,1.87 2.389,2.961 0.743,1.297 0.742,2.743 0.075,4.153 -0.785,1.658 -1.545,3.328 -2.28,5.009 -1.252,2.861 -3.031,5.167 -5.883,6.695 -4.364,2.337 -8.566,4.976 -12.928,7.317 -1.956,1.05 -4.129,1.7 -6.212,2.508 -1.412,0.548 -2.876,0.973 -4.254,1.593 -6.077,2.733 -9.523,10.653 -5.176,17.139 2.755,4.109 5.846,7.872 10.732,9.529 2.562,0.869 5.185,1.511 7.963,1.433 1.498,-0.041 3.006,0.367 4.512,0.557 1.25,0.158 2.513,0.38 3.904,-0.358 -0.444,-0.522 -0.794,-0.912 -1.119,-1.321 -0.575,-0.727 -1.13,-1.469 -1.701,-2.2 -0.241,-0.308 -2.53,-2.961 -2.731,-4.387 -0.555,-3.954 0.335,-7.343 3.265,-10.29 4.251,-4.275 9.217,-7.35 14.681,-9.756 1.97,-0.868 3.839,-1.961 5.782,-2.894 0.775,-0.372 1.625,-0.583 2.439,-0.875 1.768,-0.635 3.545,-1.248 5.293,-1.935 0.53,-0.582 1.652,-2.4 2.075,-2.811 1.465,-2.91 2.128,-3.854 3.244,-6.898 C 56.33,13.671 55.682,9.967 52.4,6.915 48.777,3.545 44.816,0.847 39.891,-0.246 37.017,-0.885 33.221,-2.301 23.892,-3.111 15.384,-3.676 8.061,-3.451 6.596,-3.232 c 0.668,0.183 -0.781,0.469 0.078,-0.05"
             style="fill:none;fill-opacity:1;fill-rule:nonzero;stroke:none"
             id="path62" />
        </g>
        <g
           id="g64"
           transform="translate(571.0403,217.9305)"
           style="fill:none">
          <path
             d="M 0,0 C 0.047,0.075 0.094,0.15 0.14,0.225 -0.251,0.461 -0.643,0.697 -1.034,0.933 -1.014,0.554 -0.856,0.381 -0.662,0.268 -0.459,0.149 -0.222,0.087 0,0 Z m 6.674,-3.282 c -3.301,0.333 -4.721,1.767 -7.708,3.107 -2.31,1.108 -3.146,2.971 -3.223,3.019 -1.015,3.33 -4.671,8.706 -2.209,12.231 1.332,1.908 3.498,2.49 5.495,3.215 3.878,1.407 7.399,0.434 10.554,-2.068 1.073,-0.851 1.361,-2.256 0.835,-3.696 C 9.787,10.801 9.103,9.095 8.495,7.361 7.426,4.316 8.459,1.994 11.492,0.816 13.2,0.154 14.964,-0.379 16.733,-0.862 22.016,-2.307 26.685,-0.934 30.8,2.48 c 0.96,0.797 1.765,1.87 2.389,2.961 0.743,1.297 0.742,2.743 0.075,4.153 -0.785,1.658 -1.545,3.328 -2.28,5.009 -1.252,2.861 -3.031,5.167 -5.883,6.695 -4.364,2.337 -8.566,4.976 -12.928,7.317 -1.956,1.05 -4.129,1.7 -6.212,2.508 -1.412,0.548 -2.876,0.973 -4.254,1.593 -6.077,2.733 -9.523,10.653 -5.176,17.139 2.755,4.109 5.846,7.872 10.732,9.529 2.562,0.869 5.185,1.511 7.963,1.433 1.498,-0.041 3.006,0.367 4.512,0.557 1.25,0.158 2.513,0.38 3.904,-0.358 -0.444,-0.522 -0.794,-0.912 -1.119,-1.321 -0.575,-0.727 -1.13,-1.469 -1.701,-2.2 -0.241,-0.308 -2.53,-2.961 -2.731,-4.387 -0.555,-3.954 0.335,-7.343 3.265,-10.29 4.251,-4.275 9.217,-7.35 14.681,-9.756 1.97,-0.868 3.839,-1.961 5.782,-2.894 0.775,-0.372 1.625,-0.583 2.439,-0.875 1.768,-0.635 3.545,-1.248 5.293,-1.935 0.53,-0.582 1.652,-2.4 2.075,-2.811 1.465,-2.91 2.128,-3.854 3.244,-6.898 C 56.33,13.671 55.682,9.967 52.4,6.915 48.777,3.545 44.816,0.847 39.891,-0.246 37.017,-0.885 33.221,-2.301 23.892,-3.111 15.384,-3.676 8.061,-3.451 6.596,-3.232 c 0.668,0.183 -0.781,0.469 0.078,-0.05 z"
             style="fill:none;stroke:#ec1d26;stroke-width:3;stroke-linecap:butt;stroke-linejoin:round;stroke-miterlimit:10;stroke-dasharray:none;stroke-opacity:1"
             id="path66" />
        </g>
        <g
           id="g68"
           transform="translate(621.2945,274.58)"
           style="fill:none">
          <path
             d="m 0,0 c -0.538,-5.125 -2.325,-9.696 -4.051,-14.737 -1.69,2.611 -1.629,5.352 -2.672,7.675 -0.163,1.193 -0.506,2.109 -1.753,4.451 -0.061,-0.057 -5.4,4.479 -5.294,4.479 C -10.466,1.883 -3.609,0 0,0"
             style="fill:none;fill-opacity:1;fill-rule:nonzero;stroke:none"
             id="path70" />
        </g>
        <g
           id="g72"
           transform="translate(621.2945,274.58)"
           style="fill:none">
          <path
             d="m 0,0 c -0.538,-5.125 -2.325,-9.696 -4.051,-14.737 -1.69,2.611 -1.629,5.352 -2.672,7.675 -0.163,1.193 -0.506,2.109 -1.753,4.451 -0.061,-0.057 -5.4,4.479 -5.294,4.479 C -10.466,1.883 -3.609,0 0,0 Z"
             style="fill:none;stroke:#ec1d26;stroke-width:3;stroke-linecap:butt;stroke-linejoin:round;stroke-miterlimit:10;stroke-dasharray:none;stroke-opacity:1"
             id="path74" />
        </g>
        <g
           id="g76"
           transform="translate(433.9517,282.1853)"
           style="fill:none">
          <path
             d="m 0,0 c 0.069,-0.835 0.182,-1.67 0.2,-2.506 0.066,-3.034 0.046,-6.072 0.18,-9.102 0.044,-0.985 0.462,-1.953 0.773,-3.182 0.596,0.378 0.938,0.536 1.208,0.775 3.457,3.072 6.72,6.4 10.397,9.18 5.5,4.158 11.757,5.094 18.375,3.011 2.07,-0.651 3.44,-2.172 4.674,-3.921 3.152,-4.466 4.195,-9.652 5.055,-14.85 0.545,-3.294 0.71,-6.678 0.741,-10.025 0.055,-5.83 -0.281,-11.666 -0.155,-17.494 0.089,-4.136 0.704,-8.259 1.011,-12.394 0.155,-2.084 1.799,-2.857 3.314,-3.888 -0.292,-0.219 -0.463,-0.459 -0.635,-0.459 -2.946,-0.007 -5.893,0.026 -8.839,0.028 -0.953,0.001 -1.906,-0.083 -2.859,-0.085 -2.39,-0.005 -4.781,0.043 -7.17,0.014 -1.672,-0.021 -3.359,-0.011 -5.009,-0.237 -2.303,-0.316 -4.433,0.305 -6.588,0.882 -0.217,0.057 -0.398,0.247 -0.995,0.636 0.88,0.427 1.355,0.748 1.88,0.897 2.351,0.666 2.817,1.002 2.899,3.422 0.13,3.831 0.042,7.67 0.029,11.506 -0.005,1.358 -0.145,2.719 -0.083,4.073 0.349,7.607 -0.516,15.17 -0.845,22.751 -0.065,1.493 -0.514,2.986 -0.905,4.447 -1.126,4.203 -5.968,5.428 -9.063,4.3 -4.984,-1.817 -7.441,-5.499 -8.469,-10.412 -1.34,-6.406 -1.041,-12.847 -0.555,-19.326 0.322,-4.291 0.092,-8.621 0.188,-12.932 0.038,-1.668 0.21,-3.347 0.496,-4.99 0.109,-0.629 0.644,-1.23 1.098,-1.743 0.713,-0.805 1.523,-1.525 2.395,-2.383 -4.459,-1.05 -29.779,-1.75 -32.235,-0.894 1.024,0.434 1.968,0.782 2.865,1.225 1.45,0.719 2.425,1.809 2.477,3.531 0.091,3.033 0.195,6.066 0.276,9.099 0.163,6.068 0.337,12.136 0.459,18.205 0.06,2.953 0.004,5.909 0.017,8.863 0.007,1.358 -0.032,2.723 0.096,4.071 0.497,5.221 0.519,5.219 -2.612,8.82 C -23.875,-9 -3.789,-0.333 0,0"
             style="fill:none;fill-opacity:1;fill-rule:nonzero;stroke:none"
             id="path78" />
        </g>
        <g
           id="g80"
           transform="translate(433.9517,282.1853)"
           style="fill:none">
          <path
             d="m 0,0 c 0.069,-0.835 0.182,-1.67 0.2,-2.506 0.066,-3.034 0.046,-6.072 0.18,-9.102 0.044,-0.985 0.462,-1.953 0.773,-3.182 0.596,0.378 0.938,0.536 1.208,0.775 3.457,3.072 6.72,6.4 10.397,9.18 5.5,4.158 11.757,5.094 18.375,3.011 2.07,-0.651 3.44,-2.172 4.674,-3.921 3.152,-4.466 4.195,-9.652 5.055,-14.85 0.545,-3.294 0.71,-6.678 0.741,-10.025 0.055,-5.83 -0.281,-11.666 -0.155,-17.494 0.089,-4.136 0.704,-8.259 1.011,-12.394 0.155,-2.084 1.799,-2.857 3.314,-3.888 -0.292,-0.219 -0.463,-0.459 -0.635,-0.459 -2.946,-0.007 -5.893,0.026 -8.839,0.028 -0.953,0.001 -1.906,-0.083 -2.859,-0.085 -2.39,-0.005 -4.781,0.043 -7.17,0.014 -1.672,-0.021 -3.359,-0.011 -5.009,-0.237 -2.303,-0.316 -4.433,0.305 -6.588,0.882 -0.217,0.057 -0.398,0.247 -0.995,0.636 0.88,0.427 1.355,0.748 1.88,0.897 2.351,0.666 2.817,1.002 2.899,3.422 0.13,3.831 0.042,7.67 0.029,11.506 -0.005,1.358 -0.145,2.719 -0.083,4.073 0.349,7.607 -0.516,15.17 -0.845,22.751 -0.065,1.493 -0.514,2.986 -0.905,4.447 -1.126,4.203 -5.968,5.428 -9.063,4.3 -4.984,-1.817 -7.441,-5.499 -8.469,-10.412 -1.34,-6.406 -1.041,-12.847 -0.555,-19.326 0.322,-4.291 0.092,-8.621 0.188,-12.932 0.038,-1.668 0.21,-3.347 0.496,-4.99 0.109,-0.629 0.644,-1.23 1.098,-1.743 0.713,-0.805 1.523,-1.525 2.395,-2.383 -4.459,-1.05 -29.779,-1.75 -32.235,-0.894 1.024,0.434 1.968,0.782 2.865,1.225 1.45,0.719 2.425,1.809 2.477,3.531 0.091,3.033 0.195,6.066 0.276,9.099 0.163,6.068 0.337,12.136 0.459,18.205 0.06,2.953 0.004,5.909 0.017,8.863 0.007,1.358 -0.032,2.723 0.096,4.071 0.497,5.221 0.519,5.219 -2.612,8.82 C -23.875,-9 -3.789,-0.333 0,0 Z"
             style="fill:none;stroke:#ec1d26;stroke-width:3;stroke-linecap:butt;stroke-linejoin:round;stroke-miterlimit:10;stroke-dasharray:none;stroke-opacity:1"
             id="path82" />
        </g>
        <g
           id="g84"
           transform="translate(484.8642,291.8628)"
           style="fill:none">
          <path
             d="m 0,0 c -0.425,-0.078 -0.847,-0.208 -1.275,-0.227 -4.07,-0.186 -13.354,-0.516 -13.883,-0.66 -5.072,-1.378 -10.178,-0.304 -15.267,-0.234 -1.165,0.016 -2.385,0.082 -3.349,1.492 0.724,0.412 1.307,0.739 1.886,1.073 1.416,0.814 2.163,1.886 2.139,3.675 -0.08,5.755 0.094,11.502 0.991,17.213 0.309,1.964 0.411,3.988 0.358,5.978 -0.193,7.189 -0.458,14.376 -0.783,21.559 -0.052,1.154 -0.548,2.288 -0.888,3.626 4.095,1.347 8.409,2.612 12.606,4.191 4.158,1.564 8.198,3.445 12.607,5.322 0.532,-4.546 1.026,-8.778 1.563,-13.363 0.706,0.518 1.127,0.808 1.528,1.124 3.818,3.006 7.503,6.201 11.481,8.976 4.125,2.877 8.884,3.294 13.786,2.49 2.739,-0.449 5.199,-1.379 7.346,-3.234 2.739,-2.366 4.277,-5.459 5.014,-8.81 1.32,-6.003 2.365,-12.092 2.251,-18.274 C 38.005,26.178 37.619,20.445 37.427,14.706 37.321,11.517 37.258,8.32 37.378,5.134 37.443,3.403 37.844,1.65 39.529,0.55 38.323,-0.023 26.831,-0.687 23.633,-0.674 18.392,-0.655 13.15,-0.864 7.808,-0.722 c 0.437,0.152 0.862,0.363 1.311,0.445 2.982,0.54 3.76,1.055 4.117,4.094 0.417,3.558 0.502,7.164 0.571,10.753 0.126,6.548 0.154,13.099 0.182,19.649 0.013,2.957 0.027,5.919 -0.136,8.869 -0.202,3.665 -1.91,6.749 -4.284,9.432 C 7.83,54.487 4.744,54.491 2.961,52.523 0.876,50.219 -0.861,47.77 -1.726,44.591 -4.195,35.519 -4.561,26.321 -4.166,17.02 -4.031,13.829 -4.072,10.631 -4.009,7.436 -3.98,6 -3.971,4.556 -3.816,3.131 -3.61,1.23 -3.35,1.024 -1.497,0.671 -0.999,0.576 -0.501,0.475 -0.003,0.377 -0.002,0.251 -0.001,0.126 0,0"
             style="fill:none;fill-opacity:1;fill-rule:nonzero;stroke:none"
             id="path86" />
        </g>
        <g
           id="g88"
           transform="translate(484.8642,291.8628)"
           style="fill:none">
          <path
             d="m 0,0 c -0.425,-0.078 -0.847,-0.208 -1.275,-0.227 -4.07,-0.186 -13.354,-0.516 -13.883,-0.66 -5.072,-1.378 -10.178,-0.304 -15.267,-0.234 -1.165,0.016 -2.385,0.082 -3.349,1.492 0.724,0.412 1.307,0.739 1.886,1.073 1.416,0.814 2.163,1.886 2.139,3.675 -0.08,5.755 0.094,11.502 0.991,17.213 0.309,1.964 0.411,3.988 0.358,5.978 -0.193,7.189 -0.458,14.376 -0.783,21.559 -0.052,1.154 -0.548,2.288 -0.888,3.626 4.095,1.347 8.409,2.612 12.606,4.191 4.158,1.564 8.198,3.445 12.607,5.322 0.532,-4.546 1.026,-8.778 1.563,-13.363 0.706,0.518 1.127,0.808 1.528,1.124 3.818,3.006 7.503,6.201 11.481,8.976 4.125,2.877 8.884,3.294 13.786,2.49 2.739,-0.449 5.199,-1.379 7.346,-3.234 2.739,-2.366 4.277,-5.459 5.014,-8.81 1.32,-6.003 2.365,-12.092 2.251,-18.274 C 38.005,26.178 37.619,20.445 37.427,14.706 37.321,11.517 37.258,8.32 37.378,5.134 37.443,3.403 37.844,1.65 39.529,0.55 38.323,-0.023 26.831,-0.687 23.633,-0.674 18.392,-0.655 13.15,-0.864 7.808,-0.722 c 0.437,0.152 0.862,0.363 1.311,0.445 2.982,0.54 3.76,1.055 4.117,4.094 0.417,3.558 0.502,7.164 0.571,10.753 0.126,6.548 0.154,13.099 0.182,19.649 0.013,2.957 0.027,5.919 -0.136,8.869 -0.202,3.665 -1.91,6.749 -4.284,9.432 C 7.83,54.487 4.744,54.491 2.961,52.523 0.876,50.219 -0.861,47.77 -1.726,44.591 -4.195,35.519 -4.561,26.321 -4.166,17.02 -4.031,13.829 -4.072,10.631 -4.009,7.436 -3.98,6 -3.971,4.556 -3.816,3.131 -3.61,1.23 -3.35,1.024 -1.497,0.671 -0.999,0.576 -0.501,0.475 -0.003,0.377 -0.002,0.251 -0.001,0.126 0,0 Z"
             style="fill:none;stroke:#ec1d26;stroke-width:3;stroke-linecap:round;stroke-linejoin:round;stroke-miterlimit:10;stroke-dasharray:none;stroke-opacity:1"
             id="path90" />
        </g>
        <g
           id="g92"
           transform="translate(513.2528,246.2715)"
           style="fill:none">
          <path
             d="m 0,0 c 0.679,0.193 1.136,0.31 1.584,0.453 4.717,1.51 8.647,4.395 12.61,7.225 0.98,0.7 1.166,1.643 0.967,2.752 -0.734,4.085 -1.408,8.18 -2.202,12.253 -0.477,2.444 -1.325,4.757 -2.943,6.738 C 7.595,32.386 4.089,32.693 1.264,30.199 -0.714,28.453 -1.637,26.176 -1.961,23.685 -2.332,20.84 -2.452,17.963 -2.666,15.098 -3.024,10.312 -1.849,5.737 -0.697,1.164 -0.607,0.807 -0.308,0.502 0,0 M 36.199,18.391 C 34.148,17.045 32.356,15.89 30.587,14.703 26.876,12.215 23.197,9.677 19.459,7.23 18.332,6.493 17.018,6.049 15.852,5.366 12.964,3.674 10.131,1.887 7.235,0.209 6.074,-0.463 4.838,-1.039 3.579,-1.499 1.962,-2.09 1.341,-2.979 2.105,-4.524 c 1.223,-2.47 2.374,-4.953 5.308,-6.133 3.914,-1.574 7.682,-3.516 11.501,-5.324 1.897,-0.898 3.898,-0.878 5.881,-0.604 3.545,0.492 6.722,1.79 9.486,4.204 2.096,1.83 4.52,3.278 6.205,5.581 0.229,0.312 0.786,0.382 1.592,0.295 -0.414,-0.975 -0.752,-1.991 -1.255,-2.917 -2.227,-4.096 -5.139,-7.65 -8.328,-11.057 -2.513,-2.686 -5.357,-4.699 -8.586,-6.354 -2.82,-1.445 -5.79,-1.807 -8.843,-1.648 -3.988,0.209 -7.972,0.532 -11.947,0.915 -3.536,0.342 -6.791,1.342 -9.742,3.564 -3.82,2.877 -7.917,5.373 -11.194,8.941 -1.815,1.976 -3.184,4.116 -4.005,6.714 -1.381,4.367 -1.743,8.755 -1.014,13.257 0.599,3.702 1.108,7.389 2.393,10.98 2.025,5.662 5.861,9.617 10.818,12.668 1.698,1.045 3.484,1.956 5.268,2.851 6.487,3.256 13.318,4.325 20.487,3.11 4.226,-0.717 7.817,-2.814 11.037,-5.483 2.268,-1.879 4.348,-4.017 6.31,-6.219 1.078,-1.209 1.739,-2.79 2.722,-4.426"
             style="fill:none;fill-opacity:1;fill-rule:nonzero;stroke:none"
             id="path94" />
        </g>
        <g
           id="g96"
           transform="translate(513.2528,246.2715)"
           style="fill:none">
          <path
             d="m 0,0 c 0.679,0.193 1.136,0.31 1.584,0.453 4.717,1.51 8.647,4.395 12.61,7.225 0.98,0.7 1.166,1.643 0.967,2.752 -0.734,4.085 -1.408,8.18 -2.202,12.253 -0.477,2.444 -1.325,4.757 -2.943,6.738 C 7.595,32.386 4.089,32.693 1.264,30.199 -0.714,28.453 -1.637,26.176 -1.961,23.685 -2.332,20.84 -2.452,17.963 -2.666,15.098 -3.024,10.312 -1.849,5.737 -0.697,1.164 -0.607,0.807 -0.308,0.502 0,0 Z M 36.199,18.391 C 34.148,17.045 32.356,15.89 30.587,14.703 26.876,12.215 23.197,9.677 19.459,7.23 18.332,6.493 17.018,6.049 15.852,5.366 12.964,3.674 10.131,1.887 7.235,0.209 6.074,-0.463 4.838,-1.039 3.579,-1.499 1.962,-2.09 1.341,-2.979 2.105,-4.524 c 1.223,-2.47 2.374,-4.953 5.308,-6.133 3.914,-1.574 7.682,-3.516 11.501,-5.324 1.897,-0.898 3.898,-0.878 5.881,-0.604 3.545,0.492 6.722,1.79 9.486,4.204 2.096,1.83 4.52,3.278 6.205,5.581 0.229,0.312 0.786,0.382 1.592,0.295 -0.414,-0.975 -0.752,-1.991 -1.255,-2.917 -2.227,-4.096 -5.139,-7.65 -8.328,-11.057 -2.513,-2.686 -5.357,-4.699 -8.586,-6.354 -2.82,-1.445 -5.79,-1.807 -8.843,-1.648 -3.988,0.209 -7.972,0.532 -11.947,0.915 -3.536,0.342 -6.791,1.342 -9.742,3.564 -3.82,2.877 -7.917,5.373 -11.194,8.941 -1.815,1.976 -3.184,4.116 -4.005,6.714 -1.381,4.367 -1.743,8.755 -1.014,13.257 0.599,3.702 1.108,7.389 2.393,10.98 2.025,5.662 5.861,9.617 10.818,12.668 1.698,1.045 3.484,1.956 5.268,2.851 6.487,3.256 13.318,4.325 20.487,3.11 4.226,-0.717 7.817,-2.814 11.037,-5.483 2.268,-1.879 4.348,-4.017 6.31,-6.219 1.078,-1.209 1.739,-2.79 2.722,-4.426 z"
             style="fill:none;stroke:#ec1d26;stroke-width:3;stroke-linecap:butt;stroke-linejoin:round;stroke-miterlimit:10;stroke-dasharray:none;stroke-opacity:1"
             id="path98" />
        </g>
        <g
           id="g100"
           transform="translate(372.9369,242.5391)"
           style="fill:none">
          <path
             d="m 0,0 c -0.156,2.082 -0.091,4.92 -0.627,7.639 -1.465,7.423 -4.944,13.949 -9.507,19.929 -1.637,2.144 -3.991,3.164 -6.408,4.003 -1.389,0.482 -2.8,0.19 -4.155,-0.531 -2.888,-1.535 -3.817,-4.275 -4.184,-7.143 -0.658,-5.149 -0.907,-10.339 -0.416,-15.533 0.15,-1.591 0.333,-3.178 0.467,-4.77 0.526,-6.253 1.573,-12.382 4.716,-17.927 2.405,-4.243 5.893,-6.686 11.099,-5.128 0.459,0.138 1.001,0.143 1.371,0.402 1.09,0.76 2.426,1.415 3.103,2.472 2.163,3.374 3.937,6.958 4.164,11.092 C -0.289,-3.901 -0.16,-2.31 0,0 m -48.258,7.117 c 0,1.358 -0.079,2.721 0.013,4.073 0.527,7.74 3.76,14.197 9.786,19.019 3.223,2.579 6.897,4.599 10.398,6.821 0.778,0.494 10.823,1.203 14.387,1.288 1.115,0.027 2.247,-0.201 3.349,-0.091 3.107,0.311 6.011,-0.433 8.929,-1.361 4.303,-1.368 8.361,-3.171 11.858,-6.085 0.673,-0.561 1.361,-1.118 1.951,-1.761 3.848,-4.194 7.056,-8.881 9.805,-13.824 1.894,-3.405 2.253,-7.28 1.841,-11.197 -0.174,-1.654 -0.152,-3.334 -0.14,-5.001 0.019,-2.551 -0.436,-4.863 -2.292,-6.837 -1.413,-1.502 -2.661,-3.189 -3.801,-4.913 -2.491,-3.77 -6.034,-6.134 -10.149,-7.658 -3.29,-1.219 -6.628,-2.406 -10.042,-3.167 -7.929,-1.766 -15.941,-2.73 -23.896,-0.153 -4.136,1.34 -7.939,3.351 -10.899,6.681 -0.529,0.594 -1.057,1.221 -1.695,1.682 -5.642,4.074 -8.146,9.887 -9.139,16.511 -0.295,1.969 -0.347,3.975 -0.51,5.965 0.082,0.002 0.164,0.005 0.246,0.008"
             style="fill:none;fill-opacity:1;fill-rule:nonzero;stroke:none"
             id="path102" />
        </g>
        <g
           id="g104"
           transform="translate(372.9369,242.5391)"
           style="fill:none">
          <path
             d="m 0,0 c -0.156,2.082 -0.091,4.92 -0.627,7.639 -1.465,7.423 -4.944,13.949 -9.507,19.929 -1.637,2.144 -3.991,3.164 -6.408,4.003 -1.389,0.482 -2.8,0.19 -4.155,-0.531 -2.888,-1.535 -3.817,-4.275 -4.184,-7.143 -0.658,-5.149 -0.907,-10.339 -0.416,-15.533 0.15,-1.591 0.333,-3.178 0.467,-4.77 0.526,-6.253 1.573,-12.382 4.716,-17.927 2.405,-4.243 5.893,-6.686 11.099,-5.128 0.459,0.138 1.001,0.143 1.371,0.402 1.09,0.76 2.426,1.415 3.103,2.472 2.163,3.374 3.937,6.958 4.164,11.092 C -0.289,-3.901 -0.16,-2.31 0,0 Z m -48.258,7.117 c 0,1.358 -0.079,2.721 0.013,4.073 0.527,7.74 3.76,14.197 9.786,19.019 3.223,2.579 6.897,4.599 10.398,6.821 0.778,0.494 10.823,1.203 14.387,1.288 1.115,0.027 2.247,-0.201 3.349,-0.091 3.107,0.311 6.011,-0.433 8.929,-1.361 4.303,-1.368 8.361,-3.171 11.858,-6.085 0.673,-0.561 1.361,-1.118 1.951,-1.761 3.848,-4.194 7.056,-8.881 9.805,-13.824 1.894,-3.405 2.253,-7.28 1.841,-11.197 -0.174,-1.654 -0.152,-3.334 -0.14,-5.001 0.019,-2.551 -0.436,-4.863 -2.292,-6.837 -1.413,-1.502 -2.661,-3.189 -3.801,-4.913 -2.491,-3.77 -6.034,-6.134 -10.149,-7.658 -3.29,-1.219 -6.628,-2.406 -10.042,-3.167 -7.929,-1.766 -15.941,-2.73 -23.896,-0.153 -4.136,1.34 -7.939,3.351 -10.899,6.681 -0.529,0.594 -1.057,1.221 -1.695,1.682 -5.642,4.074 -8.146,9.887 -9.139,16.511 -0.295,1.969 -0.347,3.975 -0.51,5.965 0.082,0.002 0.164,0.005 0.246,0.008 z"
             style="fill:none;stroke:#ec1d26;stroke-width:3;stroke-linecap:butt;stroke-linejoin:round;stroke-miterlimit:10;stroke-dasharray:none;stroke-opacity:1"
             id="path106" />
        </g>
        <g
           id="g108"
           transform="translate(539.4664,346.1608)"
           style="fill:none">
          <path
             d="m 0,0 c 0.459,0.267 0.709,0.492 0.999,0.569 3.155,0.834 6.315,1.649 9.476,2.46 3.665,0.94 7.11,2.385 10.289,4.45 1.272,0.827 2.52,1.7 3.84,2.442 1.28,0.719 1.967,0.392 2.136,-1.082 0.2,-1.741 0.205,-3.506 0.281,-5.261 0.326,-7.589 -0.405,-15.146 -0.781,-22.709 -0.426,-8.546 0.194,-17.062 0.336,-25.591 0.029,-1.75 0.271,-3.501 0.483,-5.244 0.218,-1.798 0.916,-3.365 3.053,-4.63 -1.082,-0.231 -1.633,-0.452 -2.182,-0.45 -3.749,0.019 -7.499,0.188 -11.245,0.107 -3.97,-0.086 -7.93,0.426 -11.926,-0.384 -2.498,-0.506 -5.183,-0.218 -7.719,0.184 -0.059,1.266 0.661,1.246 1.275,1.357 2.992,0.543 3.636,1.19 3.663,4.265 0.077,8.788 0.096,17.576 0.102,26.363 0.002,4.391 -0.092,8.783 -0.111,13.174 -0.01,2.507 -0.453,4.912 -1.357,7.256 C 0.281,-1.865 0.197,-0.91 0,0"
             style="fill:none;fill-opacity:1;fill-rule:nonzero;stroke:none"
             id="path110" />
        </g>
        <g
           id="g112"
           transform="translate(539.4664,346.1608)"
           style="fill:none">
          <path
             d="m 0,0 c 0.459,0.267 0.709,0.492 0.999,0.569 3.155,0.834 6.315,1.649 9.476,2.46 3.665,0.94 7.11,2.385 10.289,4.45 1.272,0.827 2.52,1.7 3.84,2.442 1.28,0.719 1.967,0.392 2.136,-1.082 0.2,-1.741 0.205,-3.506 0.281,-5.261 0.326,-7.589 -0.405,-15.146 -0.781,-22.709 -0.426,-8.546 0.194,-17.062 0.336,-25.591 0.029,-1.75 0.271,-3.501 0.483,-5.244 0.218,-1.798 0.916,-3.365 3.053,-4.63 -1.082,-0.231 -1.633,-0.452 -2.182,-0.45 -3.749,0.019 -7.499,0.188 -11.245,0.107 -3.97,-0.086 -7.93,0.426 -11.926,-0.384 -2.498,-0.506 -5.183,-0.218 -7.719,0.184 -0.059,1.266 0.661,1.246 1.275,1.357 2.992,0.543 3.636,1.19 3.663,4.265 0.077,8.788 0.096,17.576 0.102,26.363 0.002,4.391 -0.092,8.783 -0.111,13.174 -0.01,2.507 -0.453,4.912 -1.357,7.256 C 0.281,-1.865 0.197,-0.91 0,0 Z"
             style="fill:none;stroke:#ec1d26;stroke-width:3;stroke-linecap:butt;stroke-linejoin:round;stroke-miterlimit:10;stroke-dasharray:none;stroke-opacity:1"
             id="path114" />
        </g>
        <g
           id="g116"
           transform="translate(437.9907,293.9037)"
           style="fill:none">
          <path
             d="M 0,0 C 2.089,-1.051 4.742,0.179 5.952,-2.403 5.631,-2.578 5.408,-2.807 5.249,-2.77 c -5.948,1.408 -11.923,0.543 -17.887,0.206 -5.366,-0.304 -10.693,0.171 -16.02,0.675 -0.197,0.019 -0.379,0.186 -0.788,0.399 0.45,0.213 0.703,0.338 0.96,0.454 3.025,1.367 4.917,3.595 4.888,7.018 -0.039,4.473 -0.346,8.945 -0.358,13.418 -0.014,5.433 0.24,10.866 0.229,16.299 -0.011,5.349 0.038,10.739 -2.806,15.717 0.545,0.27 0.864,0.502 1.218,0.59 4.187,1.044 8.382,2.055 12.568,3.104 0.686,0.172 1.363,0.431 1.999,0.742 3.55,1.734 7.087,3.497 10.758,5.314 0.076,-0.557 0.138,-0.786 0.135,-1.014 -0.047,-3.189 -0.13,-6.378 -0.15,-9.568 -0.047,-7.187 0.144,-14.37 -0.35,-21.559 -0.273,-3.97 0.04,-7.981 0.073,-11.973 C -0.259,14.256 -0.293,11.46 -0.246,8.665 -0.197,5.73 -0.082,2.796 0,0"
             style="fill:none;fill-opacity:1;fill-rule:nonzero;stroke:none"
             id="path118" />
        </g>
        <g
           id="g120"
           transform="translate(437.9907,293.9037)"
           style="fill:none">
          <path
             d="M 0,0 C 2.089,-1.051 4.742,0.179 5.952,-2.403 5.631,-2.578 5.408,-2.807 5.249,-2.77 c -5.948,1.408 -11.923,0.543 -17.887,0.206 -5.366,-0.304 -10.693,0.171 -16.02,0.675 -0.197,0.019 -0.379,0.186 -0.788,0.399 0.45,0.213 0.703,0.338 0.96,0.454 3.025,1.367 4.917,3.595 4.888,7.018 -0.039,4.473 -0.346,8.945 -0.358,13.418 -0.014,5.433 0.24,10.866 0.229,16.299 -0.011,5.349 0.038,10.739 -2.806,15.717 0.545,0.27 0.864,0.502 1.218,0.59 4.187,1.044 8.382,2.055 12.568,3.104 0.686,0.172 1.363,0.431 1.999,0.742 3.55,1.734 7.087,3.497 10.758,5.314 0.076,-0.557 0.138,-0.786 0.135,-1.014 -0.047,-3.189 -0.13,-6.378 -0.15,-9.568 -0.047,-7.187 0.144,-14.37 -0.35,-21.559 -0.273,-3.97 0.04,-7.981 0.073,-11.973 C -0.259,14.256 -0.293,11.46 -0.246,8.665 -0.197,5.73 -0.082,2.796 0,0 Z"
             style="fill:none;stroke:#ec1d26;stroke-width:3;stroke-linecap:butt;stroke-linejoin:round;stroke-miterlimit:10;stroke-dasharray:none;stroke-opacity:1"
             id="path122" />
        </g>
        <g
           id="g124"
           transform="translate(309.9262,371.8483)"
           style="fill:none">
          <path
             d="m 0,0 c 0,-0.045 0.003,-0.124 0,-0.204 -0.237,-5.49 -3.408,-8.527 -8.993,-8.534 -1.188,-0.002 -2.375,0.246 -3.565,0.336 -2.981,0.223 -4.783,1.962 -5.883,4.575 -1.062,2.523 -1.811,5.109 -1.446,7.904 0.225,1.72 0.8,3.257 2.181,4.378 4.527,3.671 7.642,4.532 12.68,2.082 0.562,-0.274 1.181,-0.613 1.539,-1.095 C -1.853,7.24 0.513,3.407 0,0"
             style="fill:none;fill-opacity:1;fill-rule:nonzero;stroke:none"
             id="path126" />
        </g>
        <g
           id="g128"
           transform="translate(309.9262,371.8483)"
           style="fill:none">
          <path
             d="m 0,0 c 0,-0.045 0.003,-0.124 0,-0.204 -0.237,-5.49 -3.408,-8.527 -8.993,-8.534 -1.188,-0.002 -2.375,0.246 -3.565,0.336 -2.981,0.223 -4.783,1.962 -5.883,4.575 -1.062,2.523 -1.811,5.109 -1.446,7.904 0.225,1.72 0.8,3.257 2.181,4.378 4.527,3.671 7.642,4.532 12.68,2.082 0.562,-0.274 1.181,-0.613 1.539,-1.095 C -1.853,7.24 0.513,3.407 0,0 Z"
             style="fill:none;stroke:#ec1d26;stroke-width:3;stroke-linecap:butt;stroke-linejoin:round;stroke-miterlimit:10;stroke-dasharray:none;stroke-opacity:1"
             id="path130" />
        </g>
        <g
           id="g132"
           transform="translate(436.1983,371.8483)"
           style="fill:none">
          <path
             d="m 0,0 c 0,-0.045 0.003,-0.124 0,-0.204 -0.237,-5.49 -3.408,-8.527 -8.993,-8.534 -1.188,-0.002 -2.375,0.246 -3.565,0.336 -2.981,0.223 -4.783,1.962 -5.883,4.575 -1.062,2.523 -1.811,5.109 -1.446,7.904 0.225,1.72 0.8,3.257 2.181,4.378 4.526,3.671 7.642,4.532 12.68,2.082 0.562,-0.274 1.181,-0.613 1.539,-1.095 C -1.853,7.24 0.513,3.407 0,0"
             style="fill:none;fill-opacity:1;fill-rule:nonzero;stroke:none"
             id="path134" />
        </g>
        <g
           id="g136"
           transform="translate(436.1983,371.8483)"
           style="fill:none">
          <path
             d="m 0,0 c 0,-0.045 0.003,-0.124 0,-0.204 -0.237,-5.49 -3.408,-8.527 -8.993,-8.534 -1.188,-0.002 -2.375,0.246 -3.565,0.336 -2.981,0.223 -4.783,1.962 -5.883,4.575 -1.062,2.523 -1.811,5.109 -1.446,7.904 0.225,1.72 0.8,3.257 2.181,4.378 4.526,3.671 7.642,4.532 12.68,2.082 0.562,-0.274 1.181,-0.613 1.539,-1.095 C -1.853,7.24 0.513,3.407 0,0 Z"
             style="fill:none;stroke:#ec1d26;stroke-width:3;stroke-linecap:butt;stroke-linejoin:round;stroke-miterlimit:10;stroke-dasharray:none;stroke-opacity:1"
             id="path138" />
        </g>
        <g
           id="g140"
           transform="translate(556.2194,361.0588)"
           style="fill:none">
          <path
             d="m 0,0 c -2.738,-0.457 -5.073,0.493 -7.103,1.906 -1.239,0.861 -2.389,2.234 -2.936,3.63 -1.273,3.251 -1.394,6.68 -0.487,10.109 0.735,2.777 2.946,4.028 5.266,5.126 0.849,0.401 1.84,0.496 2.751,0.777 3.427,1.059 6.461,0.194 9.178,-1.953 0.931,-0.735 1.705,-1.678 2.515,-2.559 1.67,-1.816 1.733,-4.06 1.51,-6.313 C 10.447,8.219 9.506,5.908 8.154,3.819 6.232,0.848 3.315,-0.194 0,0"
             style="fill:none;fill-opacity:1;fill-rule:nonzero;stroke:none"
             id="path142" />
        </g>
        <g
           id="g144"
           transform="translate(556.2194,361.0588)"
           style="fill:none">
          <path
             d="m 0,0 c -2.738,-0.457 -5.073,0.493 -7.103,1.906 -1.239,0.861 -2.389,2.234 -2.936,3.63 -1.273,3.251 -1.394,6.68 -0.487,10.109 0.735,2.777 2.946,4.028 5.266,5.126 0.849,0.401 1.84,0.496 2.751,0.777 3.427,1.059 6.461,0.194 9.178,-1.953 0.931,-0.735 1.705,-1.678 2.515,-2.559 1.67,-1.816 1.733,-4.06 1.51,-6.313 C 10.447,8.219 9.506,5.908 8.154,3.819 6.232,0.848 3.315,-0.194 0,0 Z"
             style="fill:none;stroke:#ec1d26;stroke-width:3;stroke-linecap:butt;stroke-linejoin:round;stroke-miterlimit:10;stroke-dasharray:none;stroke-opacity:1"
             id="path146" />
        </g>
      </g>
    </g>
  </g>
</svg>
