<?xml version="1.0" encoding="UTF-8" standalone="no"?>
<!-- Created with Inkscape (http://www.inkscape.org/) -->

<svg
   width="210mm"
   height="297mm"
   viewBox="0 0 210 297"
   version="1.1"
   id="svg10940"
   sodipodi:docname="stair-railing-1.svg"
   inkscape:version="1.1.1 (3bf5ae0d25, 2021-09-20, custom)"
   xmlns:inkscape="http://www.inkscape.org/namespaces/inkscape"
   xmlns:sodipodi="http://sodipodi.sourceforge.net/DTD/sodipodi-0.dtd"
   xmlns="http://www.w3.org/2000/svg"
   xmlns:svg="http://www.w3.org/2000/svg">
  <sodipodi:namedview
     id="namedview6"
     pagecolor="#ffffff"
     bordercolor="#666666"
     borderopacity="1.0"
     inkscape:pageshadow="2"
     inkscape:pageopacity="0.0"
     inkscape:pagecheckerboard="0"
     inkscape:document-units="mm"
     showgrid="false"
     inkscape:zoom="4.359103"
     inkscape:cx="143.49282"
     inkscape:cy="71.689061"
     inkscape:window-width="1896"
     inkscape:window-height="940"
     inkscape:window-x="1930"
     inkscape:window-y="88"
     inkscape:window-maximized="1"
     inkscape:current-layer="svg10940" />
  <defs
     id="defs10937" />
  <g
     id="layer1"
     transform="matrix(0.79502592,0,0,0.71998976,-60.332475,-62.760516)">
    <path
       id="path7618"
       style="fill:none;stroke:#000000;stroke-width:0.264583px;stroke-linecap:butt;stroke-linejoin:miter;stroke-opacity:1"
       d="m 104.89195,94.247032 c -5.965929,-0.01117 -11.987271,-0.0016 -17.794777,1.466578 -3.33964,1.210937 -5.556007,5.14253 -4.357357,8.59017 0.704461,2.43501 1.897248,4.91164 1.271757,7.50601 -0.50433,3.47016 -1.216528,6.76613 -1.702737,10.23399 -0.004,2.31867 1.188321,4.00669 2.483051,5.72265 1.89565,2.17822 4.644218,3.51698 7.51789,3.72691 5.009729,0.76028 10.091583,0.40077 15.134993,0.48059 5.04341,-0.0798 10.12475,0.27969 15.13447,-0.48059 2.87368,-0.20993 5.62276,-1.54869 7.51841,-3.72691 1.29472,-1.71596 2.48705,-3.40398 2.48305,-5.72265 -0.48622,-3.46786 -1.19842,-6.76383 -1.70274,-10.23399 -0.62549,-2.59437 0.56729,-5.071 1.27176,-7.50601 1.19865,-3.44764 -1.01771,-7.379233 -4.35736,-8.59017 -6.63714,-1.677892 -13.55387,-1.45056 -20.34759,-1.464511 -0.84922,0.0017 -1.70054,-4.71e-4 -2.55282,-0.0021 z" />
  </g>
  <g
     id="layer1-7"
     transform="matrix(0.98938441,0,0,0.97341525,-81.304182,-91.611191)">
    <path
       id="path7618-5"
       style="fill:none;stroke:#000000;stroke-width:0.264583px;stroke-linecap:butt;stroke-linejoin:miter;stroke-opacity:1"
       d="m 104.89195,94.247032 c -5.965929,-0.01117 -11.987271,-0.0016 -17.794777,1.466578 -3.33964,1.210937 -5.556007,5.14253 -4.357357,8.59017 0.704461,2.43501 1.897248,4.91164 1.271757,7.50601 -0.50433,3.47016 -1.216528,6.76613 -1.702737,10.23399 -0.004,2.31867 1.188321,4.00669 2.483051,5.72265 1.89565,2.17822 4.644218,3.51698 7.51789,3.72691 5.009729,0.76028 10.091583,0.40077 15.134993,0.48059 5.04341,-0.0798 10.12475,0.27969 15.13447,-0.48059 2.87368,-0.20993 5.62276,-1.54869 7.51841,-3.72691 1.29472,-1.71596 2.48705,-3.40398 2.48305,-5.72265 -0.48622,-3.46786 -1.19842,-6.76383 -1.70274,-10.23399 -0.62549,-2.59437 0.56729,-5.071 1.27176,-7.50601 1.19865,-3.44764 -1.01771,-7.379233 -4.35736,-8.59017 -6.63714,-1.677892 -13.55387,-1.45056 -20.34759,-1.464511 -0.84922,0.0017 -1.70054,-4.71e-4 -2.55282,-0.0021 z" />
  </g>
</svg>
